<svg width="38" height="38" viewBox="0 0 38 38" fill="none" xmlns="http://www.w3.org/2000/svg">
	<path d="M34.5255 15.899H33.2501V15.8333H19.0001V22.1666H27.9483C26.6428 25.8534 23.135 28.5 19.0001 28.5C13.7537 28.5 9.50008 24.2463 9.50008 19C9.50008 13.7536 13.7537 9.49996 19.0001 9.49996C21.4218 9.49996 23.625 10.4135 25.3025 11.9058L29.781 7.42738C26.9532 4.79192 23.1706 3.16663 19.0001 3.16663C10.2561 3.16663 3.16675 10.256 3.16675 19C3.16675 27.7439 10.2561 34.8333 19.0001 34.8333C27.744 34.8333 34.8334 27.7439 34.8334 19C34.8334 17.9383 34.7242 16.902 34.5255 15.899Z" fill="#FFC107" />
	<path d="M4.99219 11.6303L10.1942 15.4454C11.6018 11.9605 15.0107 9.49996 18.9999 9.49996C21.4216 9.49996 23.6249 10.4135 25.3024 11.9058L29.7809 7.42738C26.953 4.79192 23.1704 3.16663 18.9999 3.16663C12.9184 3.16663 7.64427 6.60008 4.99219 11.6303Z" fill="#FF3D00" />
	<path d="M18.9999 34.8334C23.0897 34.8334 26.8058 33.2683 29.6154 30.7231L24.715 26.5763C23.1253 27.7804 21.1493 28.5001 18.9999 28.5001C14.8817 28.5001 11.3849 25.8741 10.0675 22.2095L4.9043 26.1876C7.52471 31.3152 12.8463 34.8334 18.9999 34.8334Z" fill="#4CAF50" />
	<path d="M34.5254 15.8991H33.25V15.8334H19V22.1667H27.9482C27.3212 23.9377 26.182 25.4648 24.7127 26.5771L24.715 26.5755L29.6155 30.7222C29.2687 31.0373 34.8333 26.9167 34.8333 19C34.8333 17.9384 34.7241 16.9021 34.5254 15.8991Z" fill="#1976D2" />
</svg>
