<svg width="72" height="73" viewBox="0 0 72 73" fill="none" xmlns="http://www.w3.org/2000/svg">
<g clip-path="url(#clip0_80319_16411)">
<path d="M68 4.5H4V68.5H68V4.5Z" fill="#ADB0D9"/>
<path d="M51.8592 21.8824C52.1024 20.9864 52.7552 20.1288 52.5888 19.22C52.4608 18.516 52.1664 17.7864 52.256 17.0568C52.32 16.5192 53.1264 14.9064 53.8304 15.0984C54.112 15.1752 54.2528 15.4952 54.3424 15.764C54.8544 17.236 55.264 18.4904 55.4304 20.0648C55.5968 21.652 55.6352 23.252 55.5712 24.852C55.5328 25.8376 55.4432 26.836 55.0464 27.732C54.7008 28.5256 54.112 29.2168 53.3952 29.6904C53.1904 29.2424 52.7552 28.9608 52.4352 28.5896C51.9232 28.0136 51.68 27.2584 51.5392 26.5032C51.5392 24.9032 51.4368 23.4696 51.8592 21.8824Z" fill="#444DF2"/>
<path d="M50.3745 36.5C50.1185 35.4504 50.2209 34.3496 50.3233 33.2744C50.4513 31.9816 50.8353 30.6376 51.6289 29.6904C52.2433 28.9608 53.1137 28.4744 54.2913 28.4488C55.0721 28.436 56.1985 28.628 56.6465 29.332C57.1073 30.0744 57.2225 31.316 57.1585 32.148C57.0689 33.2744 56.6081 34.3112 56.1601 35.3224C55.6737 36.436 55.0337 38.8296 53.5489 38.932C52.0001 39.0472 50.7329 37.9464 50.3745 36.5Z" fill="#F5B18F"/>
<path d="M42.1314 68.5H13.6514C13.7538 68.0648 13.8562 67.6296 13.9586 67.1944C15.9938 58.4648 16.7874 50.0041 16.9026 40.8521C24.109 43.5145 31.6866 42.3753 39.1234 42.2601C41.8882 42.2217 40.9666 45.3577 40.9922 48.2889C41.0306 51.9497 41.1714 55.5977 41.389 59.2329C41.5682 62.3305 41.8242 65.428 42.1314 68.5Z" fill="#F5B18F"/>
<path d="M54.675 25.236C54.3806 28.8968 53.9326 32.5576 53.6894 36.2312C53.587 37.8568 53.523 39.4696 53.523 41.0952C53.5358 46.1128 54.1374 51.5528 51.3726 55.7384C49.3374 58.8104 45.7406 60.6152 42.0798 61.0888C39.4302 61.4344 36.7806 61.1144 34.195 60.5384C30.163 59.6552 26.0286 58.0424 22.611 55.5464C20.5118 54.0104 18.6942 52.1416 17.3502 49.8888C16.0574 47.7384 15.2894 45.3192 14.8926 42.8232C14.6878 41.5048 14.5854 40.1608 14.5726 38.8168C14.547 36.3208 14.803 33.8248 15.1614 31.3544C15.6734 27.8216 16.1726 24.084 18.1822 21.0376C20.0638 18.196 22.8542 15.9816 25.9646 14.612C31.1614 12.3336 37.0366 12.18 42.707 12.5256C44.7166 12.6536 46.739 12.8328 48.6462 13.4728C50.5534 14.1128 52.3454 15.252 53.4334 16.9288C54.9822 19.3224 54.9054 22.3944 54.675 25.236Z" fill="#FEC29B"/>
<path d="M34.883 37.8393C35.9059 37.7721 36.6432 36.3166 36.5297 34.5883C36.4163 32.86 35.4951 31.5133 34.4722 31.5805C33.4493 31.6476 32.7121 33.1031 32.8255 34.8314C32.939 36.5598 33.8601 37.9064 34.883 37.8393Z" fill="#1B1464"/>
<path d="M46.9294 36.1624C47.9523 36.0953 48.6896 34.6398 48.5761 32.9114C48.4627 31.1831 47.5415 29.8364 46.5186 29.9036C45.4957 29.9707 44.7585 31.4262 44.8719 33.1546C44.9854 34.8829 45.9065 36.2295 46.9294 36.1624Z" fill="#1B1464"/>
<path d="M31.4458 28.9122C32.05 28.5525 33.0138 28.2158 33.9815 28.1544C34.9543 28.093 35.7953 28.3131 36.329 28.8891L37.362 27.9317C36.425 26.9205 35.0823 26.6734 33.8919 26.749C32.6964 26.8245 31.5162 27.2315 30.7252 27.7026L31.4458 28.9122ZM36.329 28.8891C36.594 29.1746 37.0394 29.1912 37.3236 28.9262C37.609 28.6613 37.6257 28.2158 37.3607 27.9317L36.329 28.8891ZM30.7239 27.7038C30.3898 27.9035 30.281 28.3349 30.4794 28.669C30.6791 29.003 31.1105 29.1118 31.4445 28.9134L30.7239 27.7038Z" fill="#1B1464"/>
<path d="M46.6495 27.3864C46.9913 28.0021 46.99 28.0021 46.99 28.0021C46.99 28.0021 46.9913 28.0021 46.9926 28.0008C46.9951 27.9995 47.0015 27.9957 47.0105 27.9919C47.0271 27.9829 47.0553 27.9688 47.0924 27.9509C47.1666 27.9151 47.278 27.8651 47.4175 27.8101C47.7004 27.6987 48.087 27.5746 48.5158 27.5119C49.3734 27.3864 50.3001 27.5119 50.9938 28.3682L52.087 27.4811C50.9631 26.0962 49.445 25.9541 48.3122 26.1192C47.7465 26.2024 47.2511 26.3624 46.9017 26.5007C46.725 26.5698 46.5817 26.6351 46.4818 26.6837C46.4306 26.708 46.391 26.7285 46.3628 26.7439C46.3487 26.7515 46.3372 26.7579 46.3282 26.7618C46.3244 26.7643 46.3206 26.7656 46.318 26.7682C46.3167 26.7695 46.3154 26.7695 46.3142 26.7707C46.3142 26.7707 46.3129 26.7707 46.3129 26.772C46.309 26.7707 46.3078 26.7707 46.6495 27.3864ZM50.9926 28.3682C51.237 28.6703 51.6812 28.7163 51.9833 28.4719C52.2854 28.2274 52.3314 27.7832 52.087 27.4811L50.9926 28.3682ZM46.3078 26.7707C45.9673 26.9589 45.8444 27.3877 46.0338 27.7282C46.222 28.0687 46.6508 28.1915 46.9913 28.0021L46.3078 26.7707Z" fill="#1B1464"/>
<path d="M34.0287 48.7214C36.2047 50.8014 39.333 51.8292 42.3167 51.4708L42.149 50.0731C39.5775 50.3816 36.869 49.4894 35.0002 47.7025L34.0287 48.7214ZM42.3167 51.4708C42.7032 51.4248 42.9784 51.074 42.9323 50.6875C42.8863 50.3009 42.5355 50.0257 42.149 50.0718L42.3167 51.4708ZM35.0015 47.7025C34.7199 47.4337 34.2744 47.444 34.0056 47.7256C33.7368 48.0072 33.7471 48.4526 34.0287 48.7214L35.0015 47.7025Z" fill="#1B1464"/>
<path d="M54.5473 17.9016C53.4849 21.0888 48.5569 21.6392 45.7409 21.9464C41.4529 22.42 37.6385 21.46 33.5169 20.5C32.9793 20.372 26.0289 18.6696 26.0289 18.6696C25.6705 22.228 24.8641 25.3768 22.7009 28.2312C21.7665 29.46 22.5857 30.996 22.4449 32.6088C22.2785 34.6696 22.2145 37.1784 21.5745 39.1496C21.4977 39.4056 21.2545 39.6232 20.9857 39.5848C20.6145 39.5336 20.4993 39.0856 20.3585 38.74C20.0385 37.9336 19.1297 37.204 18.2337 37.588C17.3889 37.9592 16.9665 39.2776 16.5313 40.0072C16.1217 40.6984 15.4817 41.2872 15.2513 42.0552C15.1745 42.3112 15.1489 42.58 15.0337 42.8232C14.9185 43.0664 14.6881 43.284 14.4193 43.284C14.2273 43.284 14.0481 43.156 13.9073 43.028C12.5121 41.8248 12.2817 40.2376 11.8081 38.5992C11.2705 36.6792 11.0529 34.6952 10.8609 32.724C10.7457 31.444 10.6433 30.1512 10.4769 28.8712C10.3361 27.7576 10.0289 26.6568 10.0161 25.5304C9.9649 21.8952 10.7201 18.2088 12.4993 15.06C14.8289 10.964 19.5777 8.80083 23.8401 7.67443C30.8545 5.83123 37.8561 6.84243 44.6785 9.01843C47.4305 9.90163 55.8529 14.0232 54.5473 17.9016Z" fill="#444DF2"/>
<path d="M44.2818 37.3358C43.7186 36.8238 43.3192 36.5333 43.021 36.1403C42.7778 35.8178 42.6421 35.4632 42.7368 34.8859L41.3468 34.6581C41.1855 35.6424 41.4402 36.3822 41.8972 36.9877C42.3004 37.5214 42.9109 37.9925 43.3346 38.3778L44.2818 37.3358ZM45.4978 40.1058C45.5298 39.0498 45.0472 38.0232 44.2792 37.3333L43.3384 38.3803C43.8248 38.8168 44.109 39.4542 44.0911 40.0622L45.4978 40.1058ZM38.797 42.6005C39.9311 43.2571 41.4927 43.627 42.838 43.3595C43.524 43.2238 44.1858 42.9141 44.685 42.3547C45.1893 41.7902 45.4709 41.0325 45.4965 40.1032L44.0885 40.0635C44.0693 40.7214 43.8786 41.1426 43.6328 41.4178C43.3832 41.6981 43.0223 41.8875 42.5615 41.9784C41.6156 42.1666 40.3996 41.9029 39.4984 41.3806L38.797 42.6005ZM42.7368 34.8859C42.7996 34.5019 42.5397 34.1397 42.1557 34.077C41.7717 34.0142 41.4095 34.2741 41.3468 34.6581L42.7368 34.8859ZM43.8082 37.8568L43.3346 38.3778C43.3359 38.379 43.3372 38.3803 43.3384 38.3803L43.8082 37.8568ZM44.7938 40.084L44.0898 40.0622V40.0635L44.7938 40.084ZM39.501 41.3819C39.1644 41.1874 38.7343 41.3026 38.5384 41.6392C38.3439 41.9758 38.4591 42.4059 38.7957 42.6018L39.501 41.3819Z" fill="#1B1464"/>
<path d="M18.8608 30.3432C18.0416 29.3704 16.9024 28.7304 15.3408 28.692C13.0496 28.6408 10.848 30.2152 10.0288 32.3528C8.69759 35.796 10.9248 40.0072 13.9328 41.7736C16.608 43.348 19.744 42.4264 20.5248 39.316C20.8704 37.9336 20.7296 36.4744 20.6016 35.0664C20.4224 33.364 19.9104 31.5976 18.8608 30.3432Z" fill="#FEC29B"/>
<path d="M17.4142 35.7832C17.5076 35.0856 17.5064 35.0856 17.5064 35.0856C17.5064 35.0856 17.5063 35.0856 17.5051 35.0856H17.5038C17.5025 35.0856 17.5012 35.0856 17.4999 35.0856C17.4961 35.0856 17.4923 35.0843 17.4871 35.0843C17.4769 35.083 17.4628 35.0817 17.4462 35.0792C17.4116 35.0753 17.3643 35.0702 17.3041 35.0664C17.1851 35.0574 17.0187 35.0472 16.8215 35.0459C16.4311 35.0433 15.8935 35.074 15.3495 35.2149C14.8107 35.3544 14.2052 35.618 13.7547 36.1275C13.2849 36.6574 13.0507 37.3768 13.1287 38.2766L14.5316 38.155C14.4817 37.5828 14.6315 37.2616 14.8094 37.0606C15.0065 36.8379 15.3137 36.6779 15.7028 36.578C16.0868 36.4782 16.4926 36.4526 16.8151 36.4539C16.9739 36.4552 17.1044 36.4628 17.1953 36.4692C17.2401 36.4731 17.2747 36.4756 17.2964 36.4782C17.3079 36.4795 17.3156 36.4808 17.3195 36.4808C17.322 36.4808 17.3233 36.4808 17.3233 36.4808C17.3208 36.4808 17.3207 36.4808 17.4142 35.7832ZM12.9342 33.0952C13.0391 33.7915 13.0391 33.7915 13.0391 33.7915C13.0391 33.7915 13.0417 33.7915 13.0443 33.7902C13.0494 33.7889 13.0583 33.7889 13.0699 33.7864C13.0942 33.7838 13.1326 33.7787 13.1838 33.7736C13.2849 33.7633 13.4334 33.7531 13.6139 33.7492C13.9774 33.7416 14.451 33.7646 14.9182 33.8747C15.3879 33.9848 15.8116 34.1742 16.1239 34.4686C16.4209 34.7502 16.6616 35.1675 16.714 35.8344L18.1182 35.7269C18.0414 34.731 17.6587 33.9796 17.0916 33.4446C16.54 32.9236 15.859 32.6484 15.242 32.5025C14.6212 32.3566 14.0222 32.331 13.587 32.34C13.3668 32.3438 13.1838 32.3579 13.0532 32.3694C12.9879 32.3758 12.9355 32.3822 12.8984 32.386C12.8792 32.3886 12.8651 32.3899 12.8535 32.3924C12.8484 32.3937 12.8433 32.3937 12.8395 32.3937C12.8382 32.3937 12.8356 32.3937 12.8356 32.395H12.8344C12.8344 32.395 12.8343 32.395 12.8331 32.395C12.8292 32.3988 12.8292 32.3988 12.9342 33.0952ZM13.1287 38.2766C13.162 38.6645 13.5038 38.9512 13.8916 38.9166C14.2795 38.8833 14.5662 38.5416 14.5316 38.1537L13.1287 38.2766ZM17.4142 35.7832L17.3207 36.4808C17.5307 36.5089 17.7432 36.4398 17.898 36.2939C18.0529 36.148 18.1323 35.9406 18.1156 35.7281L17.4142 35.7832ZM12.8292 32.3988C12.4452 32.4577 12.1803 32.8161 12.2391 33.2001C12.298 33.5841 12.6564 33.8491 13.0404 33.7902L12.8292 32.3988Z" fill="#F4AC7D"/>
<path d="M40.6399 60.3093C35.3382 60.5461 29.0508 58.9167 24.6655 55.9855L23.8835 57.1554C28.535 60.2658 35.1244 61.9644 40.7027 61.7148L40.6399 60.3093ZM24.6668 55.9855C24.343 55.7692 23.9065 55.8562 23.6902 56.18C23.4739 56.5039 23.5609 56.9404 23.8847 57.1567L24.6668 55.9855ZM40.7039 61.7148C41.0918 61.6968 41.3926 61.3679 41.3759 60.98C41.3593 60.5922 41.0291 60.2914 40.6412 60.308L40.7039 61.7148Z" fill="#1B1464"/>
</g>
<defs>
<clipPath id="clip0_80319_16411">
<rect x="4" y="4.5" width="64" height="64" rx="32" fill="white"/>
</clipPath>
</defs>
</svg>
