<svg width="72" height="73" viewBox="0 0 72 73" fill="none" xmlns="http://www.w3.org/2000/svg">
<g clip-path="url(#clip0_80319_16453)">
<path d="M68 4.5H4V68.5H68V4.5Z" fill="#797EF3"/>
<path d="M53.2798 33.7352C52.883 32.7368 52.8446 31.6232 52.8062 30.548C52.7678 29.2424 52.9726 27.86 53.6382 26.8232C54.1502 26.0168 54.9566 25.4152 56.1214 25.236C56.8894 25.1208 58.0414 25.172 58.5662 25.7992C59.1294 26.4648 59.3982 27.6808 59.4366 28.5256C59.4878 29.652 59.1678 30.74 58.8606 31.8024C58.515 32.9672 58.195 35.4248 56.7486 35.7192C55.2254 36.052 53.8174 35.1176 53.2798 33.7352Z" fill="#D9A48E"/>
<path d="M48.0703 68.5H19.5903C19.6927 68.0648 19.7951 67.6296 19.8975 67.1944C21.9327 58.4648 22.7263 50.0041 22.8415 40.8521C30.0479 43.5145 37.6255 42.3753 45.0623 42.2601C47.8271 42.2217 46.9055 45.3577 46.9311 48.2889C46.9695 51.9497 47.1103 55.5977 47.3279 59.2329C47.5199 62.3305 47.7631 65.428 48.0703 68.5Z" fill="#D9A48E"/>
<path d="M55.7506 22.0616C56.4802 25.5816 56.2754 29.2936 56.5186 33.0184C56.621 34.644 56.7746 36.2568 56.9922 37.8696C57.6706 42.836 58.9634 48.1608 56.7746 52.6664C55.1618 55.9816 51.8338 58.2344 48.2626 59.1816C45.677 59.8728 43.0146 59.8984 40.365 59.668C36.2562 59.3096 31.9426 58.2728 28.2306 56.2376C25.9522 54.996 23.9042 53.3704 22.2658 51.3224C20.1154 48.6088 19.5266 46.228 19.1426 42.9384C17.8498 31.892 11.2322 19.3096 23.4306 11.6936C32.3778 6.09996 47.2514 7.27756 53.4338 16.4424C54.6626 18.2344 55.3538 20.116 55.7506 22.0616Z" fill="#E5B69E"/>
<path d="M37.9527 37.0756C38.958 36.8751 39.4983 35.3357 39.1595 33.6371C38.8208 31.9386 37.7312 30.7242 36.7259 30.9247C35.7207 31.1252 35.1804 32.6647 35.5192 34.3632C35.8579 36.0617 36.9475 37.2761 37.9527 37.0756Z" fill="#1B1464"/>
<path d="M49.6764 33.8231C50.6816 33.6226 51.2219 32.0831 50.8832 30.3846C50.5444 28.686 49.4548 27.4716 48.4496 27.6721C47.4443 27.8726 46.904 29.4121 47.2428 31.1106C47.5816 32.8092 48.6711 34.0236 49.6764 33.8231Z" fill="#1B1464"/>
<path d="M33.3863 28.6843C33.9418 28.2504 34.8557 27.7934 35.8081 27.6053C36.7655 27.4171 37.6321 27.5221 38.2426 28.0213L39.1335 26.9307C38.0673 26.0603 36.7066 25.9938 35.5367 26.2242C34.3617 26.4558 33.2455 27.0088 32.521 27.5746L33.3863 28.6843ZM38.2426 28.0213C38.5434 28.267 38.9876 28.2222 39.2333 27.9214C39.4791 27.6206 39.4343 27.1765 39.1335 26.9307L38.2426 28.0213ZM32.521 27.5733C32.2138 27.8126 32.1601 28.2542 32.3994 28.5614C32.6388 28.8686 33.0804 28.9224 33.3876 28.683L32.521 27.5733Z" fill="#1B1464"/>
<path d="M45.0624 23.6488C45.4796 24.2158 45.4796 24.2158 45.4796 24.2158C45.4796 24.2158 45.4809 24.2145 45.4822 24.2145C45.4847 24.212 45.4899 24.2081 45.4988 24.203C45.5142 24.1915 45.5398 24.1748 45.5744 24.1518C45.6435 24.107 45.7472 24.0417 45.879 23.9688C46.1452 23.8216 46.5126 23.6475 46.9299 23.5297C47.7644 23.2942 48.6976 23.2993 49.4937 24.0558L50.464 23.0356C49.1724 21.8081 47.6492 21.8644 46.5472 22.1755C45.9968 22.3316 45.527 22.5544 45.198 22.7374C45.0316 22.8296 44.8985 22.9115 44.8051 22.9729C44.7577 23.0036 44.7206 23.0292 44.6937 23.0472C44.6809 23.0561 44.6694 23.0638 44.6617 23.0702C44.6579 23.0728 44.654 23.0753 44.6515 23.0779C44.6502 23.0792 44.6489 23.0792 44.6476 23.0804L44.6464 23.0817C44.6451 23.0817 44.6451 23.0817 45.0624 23.6488ZM49.4924 24.0571C49.774 24.3246 50.2195 24.3144 50.4883 24.0315C50.7558 23.7499 50.7456 23.3044 50.4627 23.0356L49.4924 24.0571ZM44.6451 23.0817C44.3328 23.3121 44.2662 23.7537 44.4966 24.066C44.727 24.3784 45.1686 24.4449 45.4809 24.2145L44.6451 23.0817Z" fill="#1B1464"/>
<path d="M38.5421 47.9868C40.9779 49.7621 44.2023 50.3791 47.1207 49.6226L46.7674 48.2594C44.2586 48.9109 41.4669 48.3759 39.3715 46.8488L38.5421 47.9868ZM47.1207 49.6226C47.497 49.5253 47.7235 49.1413 47.625 48.765C47.5277 48.3887 47.1437 48.1621 46.7674 48.2607L47.1207 49.6226ZM39.3715 46.8501C39.0579 46.621 38.6163 46.6901 38.3885 47.005C38.1607 47.3199 38.2285 47.7602 38.5434 47.988L39.3715 46.8501Z" fill="#1B1464"/>
<path d="M45.6244 32.3387C45.4938 31.7064 45.5335 31.0485 45.586 30.2766L44.1818 30.1819C44.1319 30.9205 44.0692 31.7729 44.2458 32.6254L45.6244 32.3387ZM47.6685 35.9726C46.6701 34.9371 45.9098 33.7339 45.6244 32.34L44.2445 32.6229C44.5991 34.3509 45.5297 35.7845 46.6548 36.9518L47.6685 35.9726ZM48.2458 40.4885C48.8909 39.6923 49.0727 38.8424 48.8845 38.0155C48.7066 37.2334 48.2138 36.5461 47.6711 35.9765L46.6509 36.9467C47.1194 37.4382 47.4151 37.9041 47.5111 38.3278C47.5981 38.7067 47.5431 39.1189 47.1514 39.6014L48.2458 40.4885ZM42.5908 41.2974C43.4036 41.6354 44.4455 41.8465 45.4541 41.7838C46.4602 41.7211 47.529 41.3742 48.2458 40.4898L47.1527 39.6027C46.77 40.075 46.1415 40.3297 45.3658 40.3784C44.5927 40.427 43.7658 40.2606 43.1309 39.997L42.5908 41.2974ZM45.586 30.2753C45.6129 29.8875 45.3197 29.5521 44.9306 29.5253C44.5428 29.4984 44.2074 29.7915 44.1805 30.1806L45.586 30.2753ZM44.9345 32.4808L45.6244 32.34V32.3387L44.9345 32.4808ZM47.1617 36.4616L47.6711 35.9765C47.6698 35.9752 47.6685 35.9739 47.6673 35.9726L47.1617 36.4616ZM43.1309 39.997C42.7725 39.8472 42.3604 40.0174 42.2106 40.3771C42.0609 40.7355 42.2311 41.1477 42.5908 41.2974L43.1309 39.997Z" fill="#1B1464"/>
<path d="M48.1474 49.172C48.1474 49.1976 48.1346 49.2232 48.1346 49.2488C48.0578 49.748 47.8018 50.196 47.4818 50.58C46.3938 51.8856 44.589 52.4872 42.9122 52.2824C41.2354 52.0776 39.6866 51.1304 38.573 49.8504C38.0098 49.1976 37.549 48.4424 37.421 47.5976C37.3698 47.252 37.3954 46.8552 37.6642 46.6376C37.7666 46.548 37.8946 46.4968 38.0226 46.4584C39.5586 45.9592 41.197 46.5992 42.7586 46.996C43.6802 47.2264 44.6274 47.38 45.5746 47.4824C46.829 47.6232 48.3778 47.3544 48.1474 49.172ZM56.5314 33.0184C56.365 33.4536 56.2626 33.9016 56.173 34.3496C55.8018 36.3208 55.981 38.3816 55.3666 40.3144C54.8162 42.0424 53.3698 43.604 52.0002 44.7432C51.693 44.9992 51.3602 45.2552 50.9762 45.396C49.5554 45.9208 48.1602 45.1272 46.765 45.1016C45.8178 45.076 44.8706 45.204 43.9234 45.1528C41.8882 45.0376 39.9298 44.0648 37.8818 44.1544C35.9106 44.244 34.349 45.5496 32.5058 46.1256C31.2898 46.5096 29.933 46.292 28.8066 45.6904C27.8338 45.1784 26.797 44.3592 26.2722 43.3736C25.6706 42.2344 25.5426 40.7624 25.0946 39.5464C24.8258 38.804 23.3666 35.7064 23.021 37.972C22.8034 39.3672 22.7394 40.7368 22.2274 42.0808C21.933 42.8616 21.5362 43.604 21.2802 44.3976C19.5266 49.9016 23.8274 53.844 28.2178 56.2504C31.9298 58.2728 36.2434 59.3224 40.3522 59.6808C42.989 59.9112 45.6642 59.8728 48.2498 59.1944C51.8082 58.2472 55.149 55.9816 56.7618 52.6792C58.9506 48.1736 57.6578 42.8488 56.9794 37.8824C56.7874 36.2568 56.6338 34.644 56.5314 33.0184Z" fill="#1B1464"/>
<path d="M21.2288 31.764C20.2944 30.9064 19.0784 30.42 17.5168 30.5992C15.2384 30.8424 13.2672 32.6984 12.7296 34.9256C11.8592 38.5096 14.624 42.388 17.8368 43.7576C20.6912 44.9736 23.6864 43.6552 24.0448 40.4552C24.2112 39.0344 23.8785 37.6136 23.5585 36.2312C23.1745 34.5544 22.432 32.852 21.2288 31.764Z" fill="#E5B69E"/>
<path d="M20.4991 37.332C20.4991 36.628 20.4991 36.628 20.4991 36.628C20.4991 36.628 20.4991 36.628 20.4978 36.628H20.4965C20.4953 36.628 20.494 36.628 20.4927 36.628C20.4889 36.628 20.485 36.628 20.4799 36.628C20.4697 36.628 20.4556 36.628 20.439 36.6292C20.4044 36.6305 20.3557 36.6318 20.2969 36.6344C20.1778 36.6408 20.0114 36.6536 19.8156 36.6779C19.4278 36.7278 18.8978 36.8276 18.3769 37.0388C17.8597 37.2475 17.2953 37.588 16.9138 38.1524C16.517 38.74 16.3775 39.4824 16.5733 40.3643L17.9481 40.0584C17.8239 39.5003 17.9301 39.1636 18.0799 38.9396C18.2463 38.6939 18.5305 38.4942 18.9042 38.3432C19.2729 38.1934 19.6722 38.114 19.9922 38.0744C20.1497 38.0539 20.2815 38.0449 20.3711 38.0398C20.4159 38.0372 20.4505 38.036 20.4735 38.036C20.485 38.036 20.4927 38.036 20.4965 38.036C20.4991 38.036 20.5004 38.036 20.5004 38.036C20.4991 38.036 20.4991 38.036 20.4991 37.332ZM15.7119 35.2584C15.9077 35.9342 15.9078 35.9342 15.9078 35.9342C15.9078 35.9342 15.9103 35.9342 15.9129 35.9329C15.918 35.9316 15.9257 35.9291 15.9385 35.9265C15.9628 35.9201 15.9999 35.9112 16.0498 35.8996C16.1497 35.8766 16.2956 35.8472 16.4735 35.819C16.8345 35.764 17.3055 35.7243 17.7842 35.7716C18.2655 35.819 18.7084 35.9508 19.0553 36.2017C19.3855 36.4398 19.6761 36.8212 19.813 37.4753L21.1916 37.1886C20.9881 36.2107 20.5119 35.5169 19.8809 35.06C19.2665 34.6158 18.5561 34.4328 17.9238 34.37C17.2902 34.3073 16.6924 34.3611 16.261 34.4264C16.0434 34.4596 15.863 34.4968 15.735 34.5262C15.671 34.5416 15.6197 34.5544 15.5826 34.5633C15.5647 34.5684 15.5494 34.5723 15.5391 34.5748C15.534 34.5761 15.5289 34.5774 15.5263 34.5787C15.525 34.5787 15.5238 34.58 15.5225 34.58H15.5212C15.5212 34.58 15.5212 34.58 15.5199 34.58C15.5161 34.5825 15.5161 34.5825 15.7119 35.2584ZM16.5733 40.3643C16.6578 40.7444 17.0342 40.9825 17.413 40.8993C17.7919 40.8161 18.0313 40.4385 17.9481 40.0596L16.5733 40.3643ZM20.4991 37.332V38.036C20.7116 38.036 20.9113 37.94 21.0457 37.7761C21.1788 37.6123 21.2326 37.396 21.189 37.1886L20.4991 37.332ZM15.5161 34.5825C15.1423 34.6913 14.9273 35.0817 15.0361 35.4542C15.1449 35.828 15.5353 36.043 15.9078 35.9342L15.5161 34.5825Z" fill="#DB9F7F"/>
<path d="M19.6159 19.3352C18.7967 19.3352 18.7967 20.6152 19.6159 20.6152C20.4479 20.6152 20.4479 19.3352 19.6159 19.3352Z" fill="#DB9F7F"/>
<path d="M20.7042 17.0824C19.885 17.0824 19.885 18.3624 20.7042 18.3624C21.5234 18.3624 21.5234 17.0824 20.7042 17.0824Z" fill="#DB9F7F"/>
<path d="M22.0353 19.2456C21.2161 19.2456 21.2161 20.5256 22.0353 20.5256C22.8545 20.5256 22.8545 19.2456 22.0353 19.2456Z" fill="#DB9F7F"/>
</g>
<defs>
<clipPath id="clip0_80319_16453">
<rect x="4" y="4.5" width="64" height="64" rx="32" fill="white"/>
</clipPath>
</defs>
</svg>
