<svg width="72" height="73" viewBox="0 0 72 73" fill="none" xmlns="http://www.w3.org/2000/svg">
<g clip-path="url(#clip0_80319_16392)">
<path d="M68 4.5H4V68.5H68V4.5Z" fill="#444DF2"/>
<path d="M55.1746 42.5288C55.789 43.9368 56.7746 45.1528 57.5298 46.484C58.285 47.8152 58.797 49.4152 58.3746 50.8872C58.7458 50.9768 59.0402 50.5544 59.181 50.196C60.0002 48.0072 59.117 44.436 58.3234 42.3112C57.3122 39.5848 55.1362 37.2296 55.021 34.324C54.0482 36.9096 54.0482 39.9816 55.1746 42.5288Z" fill="#797EF3"/>
<path d="M53.5614 13.9336C55.3022 16.0456 56.659 18.6312 56.6078 21.3704C56.5822 22.3304 56.3902 23.2648 56.1982 24.1992C55.8014 26.1192 55.4046 28.0264 55.0078 29.9464C54.9054 30.42 54.8158 30.8936 54.5598 31.3032C53.971 32.2632 52.627 32.5704 51.5774 32.1864C50.5278 31.8024 49.747 30.8424 49.3374 29.8056C48.6974 28.2184 48.7742 26.4008 49.2478 24.7624C49.7214 23.1112 50.5662 21.6008 51.4366 20.1288C52.0894 19.028 52.7806 17.9144 53.8046 17.1464L53.5614 13.9336Z" fill="#797EF3"/>
<path d="M43.5394 68.5H29.8178C29.805 68.5 29.805 68.5 29.7922 68.5C27.4754 68.3848 25.133 68.4616 22.8034 68.4872C22.3426 68.4872 21.8818 68.5 21.4082 68.5C21.4978 68.1928 21.5874 67.8984 21.6642 67.604C23.1234 62.548 23.8274 57.6456 24.0834 52.4616C24.1346 51.4632 24.1602 50.452 24.1858 49.4408C24.5314 49.5432 24.877 49.6328 25.2354 49.7224C25.3122 49.748 25.3762 49.7608 25.453 49.7736C26.0418 49.9144 26.6306 50.0424 27.2322 50.132C32.4546 51.028 37.8434 50.4648 43.1554 50.4008C45.2546 50.3752 44.2946 54.484 43.4626 57.6968C43.4626 57.7096 43.4498 57.7224 43.4498 57.7352C43.0786 59.1304 42.7458 60.3592 42.6946 60.9992C42.5026 63.5208 42.6946 66.132 43.5394 68.5Z" fill="#E8C5AA"/>
<path d="M48.224 15.7512C47.008 14.8808 45.5488 14.3304 44 13.7928C37.1136 11.3992 28.6144 12.116 23.2512 17.4664C21.2032 19.5016 19.7312 22.0872 18.9504 24.8776C18.1056 27.8856 18.5408 30.548 18.7328 33.5816C19.0272 38.3944 19.7824 43.4888 22.9056 47.1624C28.192 53.3832 36.512 57.2872 44.6144 57.812C47.136 57.9784 49.9392 57.6456 52.1152 56.2888C53.4208 55.4696 54.496 54.2152 55.008 52.7432C55.3536 51.7448 55.2 50.6056 55.3792 49.556C55.7248 47.4824 56.4416 45.4984 56.6976 43.412C56.9664 41.2104 56.9152 38.9832 56.7232 36.7816C56.608 35.4248 56.5696 34.0296 56.2112 32.7112C55.8528 31.38 55.1744 30.1896 54.7648 28.8584C53.9456 26.1832 53.1776 23.252 51.9104 20.756C51.0144 19.0024 49.8368 16.8904 48.224 15.7512Z" fill="#F4D3B8"/>
<path d="M45.4507 34.5588C46.449 34.326 46.9394 32.7699 46.5461 31.0831C46.1527 29.3963 45.0246 28.2177 44.0263 28.4505C43.028 28.6832 42.5376 30.2393 42.9309 31.9261C43.3243 33.6129 44.4524 34.7915 45.4507 34.5588Z" fill="#1B1464"/>
<path d="M52.9099 31.3006C53.6946 31.1176 54.0824 29.9028 53.7765 28.5883C53.4706 27.2737 52.5848 26.356 51.8002 26.539C51.0155 26.722 50.6277 27.9368 50.9349 29.2513C51.2408 30.5659 52.1253 31.4836 52.9099 31.3006Z" fill="#1B1464"/>
<path d="M54.6725 36.3759C54.8658 36.6076 54.9054 37.0274 54.6277 37.7378C54.3666 38.406 53.9173 39.0818 53.5819 39.5707L54.7442 40.3656C55.0744 39.8831 55.612 39.0869 55.9384 38.2498C56.2494 37.4562 56.4798 36.34 55.7528 35.4709L54.6725 36.3759ZM51.9742 35.2904C52.5029 35.5477 53.189 35.6949 53.628 35.8268C54.1349 35.9778 54.4677 36.1365 54.6802 36.3836L55.7477 35.4658C55.2562 34.8936 54.5842 34.6428 54.0312 34.4776C53.4104 34.292 52.9829 34.2152 52.5899 34.0245L51.9742 35.2904ZM49.0251 31.4056C49.2811 33.1541 50.4651 34.5506 51.9717 35.2891L52.5912 34.0245C51.4354 33.4575 50.597 32.422 50.4178 31.2008L49.0251 31.4056ZM53.5819 39.5707C53.3618 39.892 53.445 40.3298 53.765 40.5487C54.085 40.7676 54.524 40.6856 54.7429 40.3656L53.5819 39.5707ZM55.2126 35.924L55.7528 35.4722C55.7502 35.4696 55.749 35.4671 55.7464 35.4658L55.2126 35.924ZM52.2814 34.6568L51.9717 35.2891C51.973 35.2891 51.973 35.2904 51.9742 35.2904L52.2814 34.6568ZM50.4178 31.2008C50.3614 30.8156 50.0043 30.5506 49.619 30.6069C49.2338 30.6632 48.9688 31.0203 49.0251 31.4056L50.4178 31.2008Z" fill="#1B1464"/>
<path d="M46.2914 46.0347C48.3727 45.8837 50.8943 45.684 52.7234 44.1429L51.8159 43.0664C50.3938 44.2645 48.3586 44.4744 46.1903 44.6306L46.2914 46.0347ZM42.9135 45.9426C44.0681 46.1986 45.247 46.1103 46.2914 46.0347L46.1903 44.6306C45.11 44.7087 44.1385 44.7727 43.2194 44.5691L42.9135 45.9426ZM52.1666 46.7682C49.2841 47.9586 45.6591 47.1125 43.5919 44.788L42.5398 45.7237C45.0038 48.4936 49.2636 49.4907 52.7042 48.0699L52.1666 46.7682ZM52.7222 44.1429C53.0191 43.892 53.0575 43.4479 52.8066 43.1509C52.5558 42.8539 52.1116 42.8155 51.8146 43.0664L52.7222 44.1429ZM43.0658 45.2552L43.2182 44.5679C42.9199 44.5013 42.6127 44.6357 42.4578 44.8981C42.303 45.1618 42.3362 45.4946 42.5385 45.7224L43.0658 45.2552ZM52.7042 48.0687C53.0639 47.9202 53.2342 47.508 53.0857 47.1496C52.9372 46.7899 52.525 46.6197 52.1666 46.7682L52.7042 48.0687Z" fill="#1B1464"/>
<path d="M40.7629 25.876C39.5942 26.411 38.4589 27.339 37.9226 28.6267L39.2218 29.1681C39.5814 28.3041 40.3917 27.5937 41.3478 27.1573L40.7629 25.876ZM45.3414 25.3141C43.7146 24.9889 42.2976 25.1784 40.7654 25.876L41.3478 27.1573C42.6304 26.5736 43.7478 26.4315 45.0662 26.6952L45.3414 25.3141ZM37.9226 28.6254C37.7728 28.9838 37.943 29.396 38.3014 29.5457C38.6598 29.6955 39.072 29.5253 39.2218 29.1669L37.9226 28.6254ZM41.056 26.516L40.7642 25.8747C40.7642 25.8747 40.7629 25.8747 40.7629 25.876L41.056 26.516ZM45.065 26.6939C45.4464 26.7707 45.8176 26.5224 45.8931 26.1422C45.9699 25.7608 45.7216 25.3896 45.3414 25.3141L45.065 26.6939Z" fill="#1B1464"/>
<path d="M50.1952 24.0328C50.4 24.706 50.4 24.706 50.3987 24.706C50.3987 24.706 50.3987 24.706 50.4 24.706C50.4013 24.706 50.4051 24.7048 50.409 24.7035C50.4179 24.7009 50.4346 24.6958 50.4563 24.6907C50.4998 24.6792 50.5651 24.6638 50.6496 24.6459C50.8186 24.61 51.0566 24.5704 51.3254 24.5524C51.8861 24.514 52.4736 24.5793 52.8998 24.8545L53.664 23.6718C52.8602 23.1534 51.9053 23.1022 51.232 23.1483C50.8838 23.1713 50.5792 23.2225 50.3629 23.2686C50.2541 23.2916 50.1658 23.3134 50.1018 23.3288C50.0698 23.3364 50.0454 23.3441 50.0262 23.3492C50.0173 23.3518 50.0096 23.3544 50.0045 23.3556C50.0019 23.3569 49.9994 23.3569 49.9968 23.3582C49.9955 23.3582 49.9955 23.3582 49.9942 23.3595H49.993C49.9904 23.3595 49.9904 23.3595 50.1952 24.0328ZM52.8986 24.8545C53.225 25.0657 53.6614 24.9723 53.8714 24.6446C54.0813 24.3169 53.9891 23.8817 53.6614 23.6718L52.8986 24.8545ZM49.9904 23.3595C49.6179 23.4721 49.408 23.8651 49.5206 24.2376C49.6333 24.61 50.0262 24.82 50.3987 24.7073L49.9904 23.3595Z" fill="#1B1464"/>
<path d="M43.3985 19.1176C43.6289 19.412 43.8721 19.7064 44.1153 19.988C45.8305 21.972 48.1345 21.8952 50.5921 22.1512C52.4225 22.3304 54.3809 22.8168 55.5073 24.276C56.4289 25.4792 56.5825 27.1304 56.3521 28.628C56.2625 29.2552 56.1089 29.8696 56.0449 30.4968C55.8401 32.5064 56.5825 34.5544 57.8881 36.0776C59.1937 37.6136 61.0497 38.6376 62.9953 39.1112C61.9713 38.1896 60.9345 37.2552 60.1665 36.0904C59.2961 34.7592 58.8225 33.1848 58.8353 31.5976C58.8481 29.972 59.3473 28.3848 59.6801 26.7976C60.4225 23.252 60.1921 19.54 59.1937 16.0712C58.3617 13.204 56.9281 9.26163 54.2529 7.61043C52.0513 6.24083 49.6577 5.54963 47.0337 5.75443C44.8065 5.93363 42.5665 6.97043 41.2993 8.82643C39.1233 12.0136 41.2993 16.4168 43.3985 19.1176Z" fill="#797EF3"/>
<path d="M42.7202 13.3832C42.5282 13.524 42.3362 13.652 42.1442 13.78C41.8882 13.9464 41.6322 14.1128 41.3762 14.2664C41.2098 14.3688 41.0434 14.4712 40.877 14.5736C38.3042 16.212 35.7186 17.8504 33.3762 19.8088C31.8914 21.0504 30.509 22.3944 29.1522 23.764C28.5378 24.3784 27.7442 24.9416 27.1938 25.5944C26.6562 26.2344 26.669 26.9128 26.5794 27.7448C26.5666 27.8728 26.5538 28.0136 26.5282 28.1416C26.0418 32.3272 25.5554 36.5128 25.0562 40.6856C24.6978 43.7064 25.005 46.6248 25.2098 49.5432C25.2098 49.5944 25.2226 49.6456 25.2226 49.6968C25.325 51.3096 25.4018 52.9224 25.3122 54.5736C25.2866 55.0472 25.2482 55.5208 25.1842 55.9944C24.9794 57.7608 24.7618 59.5144 24.557 61.2808C24.2882 63.5592 24.0066 65.8888 23.0466 67.9752C22.9698 68.1416 22.8802 68.3208 22.7906 68.4872H10.6562C10.3618 68.2312 10.093 67.9752 9.90099 67.668C9.14579 66.4392 9.51699 64.212 9.97779 62.9576C10.477 61.6392 11.3474 60.4872 11.949 59.22C12.5506 57.94 12.845 56.3784 12.1666 55.1496C11.8722 54.612 11.4242 54.1896 11.053 53.7032C9.40179 51.4504 9.96499 48.3144 10.7714 45.6392C11.5778 42.964 12.5634 40.0712 11.565 37.46C11.0914 36.2312 10.2082 35.1944 9.65779 33.9912C8.16019 30.6888 9.44019 26.7464 11.4626 23.7384C12.2946 22.4968 13.2546 21.3192 13.7922 19.924C14.381 18.4008 14.4194 16.724 14.6626 15.1112C14.9058 13.4984 15.4434 11.8088 16.7362 10.7976C17.7986 9.96556 19.1554 9.76076 20.397 9.31276C21.6642 8.85196 22.701 8.07116 23.8402 7.37996C26.4898 5.77996 29.5106 4.89676 32.6082 4.84556C34.8738 4.81996 37.1394 5.20396 39.2898 5.89516C40.6466 6.33036 41.4786 6.88076 42.2722 7.68716C42.6818 8.10956 43.0914 8.60876 43.5522 9.18476C43.8978 9.61996 44.2434 10.068 44.3458 10.6056C44.5506 11.7448 43.6802 12.6792 42.7202 13.3832Z" fill="#797EF3"/>
<path d="M21.3056 30.3432C20.4864 29.3704 19.3472 28.7304 17.7856 28.692C15.4944 28.6408 13.2928 30.2152 12.4736 32.3528C11.1424 35.796 13.3696 40.0072 16.3776 41.7736C19.0528 43.348 22.1888 42.4264 22.9696 39.316C23.3152 37.9336 23.1744 36.4744 23.0464 35.0664C22.8672 33.364 22.3552 31.5976 21.3056 30.3432Z" fill="#F4D3B8"/>
<path d="M19.8722 35.7832C19.9656 35.0856 19.9644 35.0856 19.9644 35.0856C19.9644 35.0856 19.9644 35.0856 19.9631 35.0856H19.9618C19.9605 35.0856 19.9592 35.0856 19.958 35.0856C19.9541 35.0856 19.9503 35.0843 19.9452 35.0843C19.9349 35.083 19.9208 35.0817 19.9042 35.0792C19.8696 35.0753 19.8223 35.0702 19.7621 35.0664C19.6431 35.0574 19.4767 35.0472 19.2796 35.0459C18.8892 35.0433 18.3516 35.074 17.8076 35.2149C17.2687 35.3544 16.6632 35.618 16.2127 36.1275C15.7429 36.6574 15.5087 37.3768 15.5868 38.2766L16.9896 38.155C16.9397 37.5828 17.0895 37.2616 17.2674 37.0606C17.4645 36.8379 17.7717 36.6779 18.1608 36.578C18.5448 36.4782 18.9506 36.4526 19.2732 36.4539C19.4319 36.4552 19.5624 36.4628 19.6533 36.4692C19.6981 36.4731 19.7327 36.4756 19.7544 36.4782C19.766 36.4795 19.7736 36.4808 19.7775 36.4808C19.78 36.4808 19.7813 36.4808 19.7813 36.4808C19.7788 36.4808 19.7788 36.4808 19.8722 35.7832ZM15.3922 33.0952C15.4972 33.7915 15.4972 33.7915 15.4972 33.7915C15.4972 33.7915 15.4997 33.7915 15.5023 33.7902C15.5074 33.7889 15.5164 33.7889 15.5279 33.7864C15.5522 33.7838 15.5906 33.7787 15.6418 33.7736C15.7429 33.7633 15.8914 33.7531 16.0719 33.7492C16.4354 33.7416 16.909 33.7646 17.3762 33.8747C17.846 33.9848 18.2696 34.1742 18.582 34.4686C18.8789 34.7502 19.1196 35.1675 19.172 35.8344L20.5762 35.7269C20.4994 34.731 20.1167 33.9796 19.5496 33.4446C18.998 32.9236 18.317 32.6484 17.7 32.5025C17.0792 32.3566 16.4802 32.331 16.045 32.34C15.8248 32.3438 15.6418 32.3579 15.5112 32.3694C15.446 32.3758 15.3935 32.3822 15.3564 32.386C15.3372 32.3886 15.3231 32.3899 15.3116 32.3924C15.3064 32.3937 15.3013 32.3937 15.2975 32.3937C15.2962 32.3937 15.2936 32.3937 15.2936 32.395H15.2924C15.2924 32.395 15.2924 32.395 15.2911 32.395C15.2872 32.3988 15.2872 32.3988 15.3922 33.0952ZM15.5868 38.2766C15.62 38.6645 15.9618 38.9512 16.3496 38.9166C16.7375 38.8833 17.0242 38.5416 16.9896 38.1537L15.5868 38.2766ZM19.8722 35.7832L19.7788 36.4808C19.9887 36.5089 20.2012 36.4398 20.356 36.2939C20.5109 36.148 20.5903 35.9406 20.5736 35.7281L19.8722 35.7832ZM15.2872 32.3988C14.9032 32.4577 14.6383 32.8161 14.6972 33.2001C14.756 33.5841 15.1144 33.8491 15.4984 33.7902L15.2872 32.3988Z" fill="#EABC97"/>
<path d="M22.9825 22.0232C23.7633 19.8344 25.0689 17.7608 26.4001 15.892C27.6929 14.0616 29.4465 12.564 31.4561 11.5656C33.3377 10.644 35.5137 10.1576 37.5361 10.6952C40.8385 11.5784 42.8481 15.7 41.1969 18.8232C40.5441 20.0648 39.3025 20.8712 38.1505 21.652C34.4513 24.1864 30.8289 27.4376 29.8817 31.8152C29.2929 34.516 29.8177 37.3192 29.3825 40.0328C29.0369 42.1192 28.0641 43.8856 27.4497 45.844C26.7969 47.8664 27.1425 50.2472 27.7441 52.244C28.4225 54.484 29.5361 56.5448 30.6241 58.6184C31.4305 60.1544 32.2113 62.1 31.2129 63.5208C31.6993 62.2152 31.1617 60.7176 30.2913 59.6296C29.4209 58.5416 28.2561 57.7352 27.2321 56.788C24.8641 54.5736 23.3153 51.5144 22.8673 48.3144C22.6753 46.9832 22.5217 45.5496 22.4321 44.1928C22.3297 42.5672 23.0081 40.9544 23.1873 39.3416C23.5201 36.2952 22.0993 33.9528 21.8305 31.124C21.5489 28.1544 21.9713 24.8648 22.9825 22.0232Z" fill="#797EF3"/>
<path d="M42.8481 57.812C42.8481 57.108 42.8481 57.108 42.8481 57.108C42.8468 57.108 42.8455 57.108 42.8417 57.108C42.8353 57.108 42.8251 57.108 42.8097 57.108C42.7803 57.1067 42.7342 57.1055 42.6714 57.1029C42.5473 57.0978 42.3604 57.0863 42.1159 57.0619C41.6282 57.0159 40.9153 56.9211 40.0346 56.7317C38.2721 56.3528 35.8401 55.5912 33.1879 54.0655L32.4865 55.2866C35.2858 56.8968 37.8599 57.7045 39.739 58.109C40.6785 58.3112 41.4465 58.4136 41.9828 58.4648C42.2516 58.4904 42.4628 58.5032 42.6087 58.5096C42.6817 58.5135 42.7393 58.5147 42.779 58.516C42.7994 58.516 42.8148 58.5173 42.8263 58.5173C42.8314 58.5173 42.8366 58.5173 42.8404 58.5173C42.8417 58.5173 42.8442 58.5173 42.8442 58.5173H42.8455C42.8481 58.516 42.8481 58.516 42.8481 57.812ZM33.1892 54.0655C32.8526 53.8722 32.4212 53.9874 32.2279 54.3253C32.0346 54.6632 32.1498 55.0933 32.4878 55.2866L33.1892 54.0655ZM42.8481 58.516C43.2372 58.516 43.5521 58.2011 43.5521 57.812C43.5521 57.4229 43.2372 57.108 42.8481 57.108V58.516Z" fill="#1B1464"/>
</g>
<defs>
<clipPath id="clip0_80319_16392">
<rect x="4" y="4.5" width="64" height="64" rx="32" fill="white"/>
</clipPath>
</defs>
</svg>
