<svg width="72" height="73" viewBox="0 0 72 73" fill="none" xmlns="http://www.w3.org/2000/svg">
<g clip-path="url(#clip0_80319_16429)">
<path d="M68 4.5H4V68.5H68V4.5Z" fill="#ADB0D9"/>
<path d="M43.2843 68.5H14.8018C14.9029 68.1992 15.0066 67.8997 15.1077 67.6002C17.1403 61.5778 17.9326 55.7474 18.0491 49.4344C25.2606 51.27 32.8344 50.4828 40.275 50.406C43.0437 50.3778 42.1131 52.5449 42.149 54.5609C42.1925 57.0812 42.323 59.6002 42.5406 62.1116C42.725 64.2479 42.9733 66.3791 43.2843 68.5Z" fill="#ADB0D9"/>
<path d="M43.2843 68.5H14.8018C14.9029 68.1992 15.0066 67.8997 15.1077 67.6002C17.1403 61.5778 17.9326 55.7474 18.0491 49.4344C25.2606 51.27 32.8344 50.4828 40.275 50.406C43.0437 50.3778 42.1131 52.5449 42.149 54.5609C42.1925 57.0812 42.323 59.6002 42.5406 62.1116C42.725 64.2479 42.9733 66.3791 43.2843 68.5Z" fill="#E8AE8E"/>
<path d="M23.0847 54.589C23.1308 54.644 23.1781 54.6991 23.2242 54.7528C23.8181 55.4517 24.4159 56.1544 25.1148 56.7496C28.7589 59.8498 34.4306 60.2056 38.9196 61.0811C41.646 61.6123 44.3749 61.7032 47.0617 60.8802C50.1593 59.9304 52.9381 57.8363 54.4946 54.9947C56.4325 51.4543 56.3545 47.197 56.2265 43.1624C56.1535 40.8725 56.0805 38.5839 56.0076 36.2939C55.9615 34.8578 55.9167 33.4203 55.9897 31.9855C56.1689 28.4488 57.093 24.8213 56.3301 21.2962C55.6965 18.3701 53.2492 15.316 50.5177 14.0757C46.2066 12.1186 41.0418 11.6027 36.3775 12.1301C33.0021 12.5115 29.5679 12.916 26.4652 14.2946C23.6773 15.5336 20.0639 17.1144 18.5753 19.8805C16.6873 23.3877 15.6133 27.4427 15.1564 31.3826C14.7788 34.6389 14.8466 37.9477 15.3625 41.1861C15.8501 44.2491 16.6655 47.0357 18.6905 49.4178C20.1535 51.1419 21.6191 52.8648 23.0847 54.589Z" fill="#F4C19F"/>
<path d="M43.3385 44.6344C42.957 44.6344 42.6434 44.3298 42.6345 43.947C42.6255 43.5579 42.9327 43.2354 43.3218 43.2264C45.0767 43.1854 45.7769 42.6773 46.9685 41.5816C45.6066 38.539 44.8054 35.3109 44.5839 31.9778C44.5583 31.5899 44.8514 31.2546 45.2393 31.229C45.6246 31.2046 45.9625 31.4965 45.9881 31.8843C46.2057 35.1662 47.0594 38.475 48.4572 41.4523C48.5877 41.7288 48.5237 42.0578 48.2997 42.2664C46.669 43.7845 45.709 44.5794 43.3538 44.6331C43.35 44.6344 43.3449 44.6344 43.3385 44.6344Z" fill="#1B1464"/>
<path d="M37.6878 37.8341C38.7142 37.7668 39.4544 36.3128 39.3411 34.5866C39.2278 32.8604 38.3039 31.5156 37.2774 31.583C36.251 31.6503 35.5108 33.1043 35.6241 34.8305C35.7374 36.5567 36.6613 37.9015 37.6878 37.8341Z" fill="#1B1464"/>
<path d="M51.9089 37.4347C52.9354 37.3673 53.6756 35.9134 53.5623 34.1871C53.449 32.4609 52.525 31.1162 51.4986 31.1836C50.4722 31.2509 49.732 32.7049 49.8453 34.4311C49.9586 36.1573 50.8825 37.5021 51.9089 37.4347Z" fill="#1B1464"/>
<path d="M55.1103 31.6167C54.9106 31.6167 54.7109 31.5322 54.5727 31.3671C52.092 28.4334 49.1762 28.491 49.148 28.4897C48.7551 28.5038 48.4351 28.1966 48.4223 27.8074C48.4095 27.4183 48.7154 27.0945 49.1045 27.0817C49.2504 27.0778 52.7333 27.0087 55.6491 30.457C55.9 30.754 55.8629 31.1982 55.5659 31.449C55.4315 31.5617 55.2703 31.6167 55.1103 31.6167Z" fill="#1B1464"/>
<path d="M30.9875 32.7765C30.9388 32.7765 30.8902 32.7713 30.8403 32.7611C30.4601 32.6817 30.2169 32.3029 30.2963 31.9227C30.327 31.7742 31.1423 28.2504 38.3385 26.2472C38.7135 26.1435 39.1014 26.3624 39.2051 26.7361C39.3087 27.1112 39.0899 27.499 38.7161 27.6027C32.4467 29.3486 31.6799 32.1928 31.6723 32.2209C31.6019 32.5537 31.3126 32.7765 30.9875 32.7765Z" fill="#1B1464"/>
<path d="M43.4842 51.8767C42.9274 51.8767 42.3489 51.7947 41.7677 51.6283C40.4148 51.2405 39.2039 50.4687 38.1364 49.7877C37.8087 49.5791 37.7127 49.1426 37.9213 48.8162C38.13 48.4885 38.5652 48.3925 38.8928 48.6011C39.9271 49.2616 40.9972 49.9451 42.153 50.2754C43.3524 50.6184 44.5018 50.5058 45.3069 49.9669C45.6295 49.7506 46.0672 49.8376 46.2836 50.1602C46.4999 50.4827 46.4128 50.9205 46.0903 51.1368C45.3607 51.6258 44.457 51.8767 43.4842 51.8767Z" fill="#1B1464"/>
<path d="M17.934 43.1739C17.4463 41.0209 17.9852 38.5864 18.0914 36.3924C18.1055 36.1147 18.1298 35.8088 18.3142 35.6129C18.6879 35.2148 19.2985 35.5707 19.8028 35.7371C20.7372 36.0443 21.7855 35.5502 22.4038 34.7425C23.1334 33.7902 23.3446 32.5025 23.3766 31.2724C23.3945 30.5761 23.3382 29.9822 23.0655 29.3588C22.9004 28.9838 22.5382 27.9163 22.1362 27.7768C23.7836 28.3451 25.783 28.2504 27.0079 26.9473C27.374 26.5582 27.6505 26.0833 27.886 25.5931C28.5119 24.2875 29.1276 21.9694 27.9462 20.8251C29.0866 21.9732 30.7161 22.8027 32.311 22.4084C33.9379 22.0052 35.1731 19.9227 34.3897 18.3508C35.2025 20.0673 36.2188 21.9643 37.9699 22.4238C39.918 22.9358 42.0543 20.9544 41.847 18.827C42.7046 20.9825 44.0191 23.1355 46.0774 23.9547C48.1343 24.7739 50.9542 23.5425 51.1654 21.2116C51.1091 21.8235 50.8684 22.4776 50.8991 23.0856C51.0143 25.3512 53.0559 27.0945 54.7673 28.1006C56.4057 29.0632 58.3295 30.1294 60.2956 29.8004C62.1555 29.4907 63.0771 27.924 63.351 26.0462C63.5302 24.8161 63.4508 23.4248 62.6444 22.5236C61.7382 23.9496 60.0537 24.7649 58.4499 24.5563C59.3727 24.0123 60.0601 22.9051 59.9052 21.794C59.7209 20.459 58.4294 19.9355 57.3593 20.1915C58.4243 18.827 59.8246 17.812 59.7452 15.787C59.6569 13.5406 57.847 11.2507 56.0716 10.242C55.1462 9.71596 54.062 9.41132 53.0406 9.66348C52.0191 9.91564 51.1014 10.827 51.0207 11.9419C50.7532 9.75308 49.3567 7.84716 47.6134 6.65804C45.87 5.46892 43.8066 4.91852 41.7535 4.6318C40.4402 4.44748 39.0438 4.37708 37.8534 4.99532C36.663 5.61356 35.7887 7.13036 36.2419 8.45644C34.7097 6.059 31.9539 4.78028 29.2377 4.5998C26.5215 4.41932 23.8284 5.21292 21.2889 6.2574C20.3225 6.65548 19.3164 7.13548 18.7353 8.0494C17.4796 10.0257 18.8556 12.6561 20.2905 14.4865C19.4355 12.6075 17.1327 12.1748 15.1743 12.1326C13.1327 12.0891 10.6854 12.482 9.83034 14.4584C8.90234 16.6011 10.5049 18.9588 11.9986 20.6984C9.79065 19.7115 6.92857 21.6212 6.79673 24.1697C6.66489 26.7182 9.31192 28.9531 11.6095 28.2299C11.0527 27.476 9.81242 27.7704 9.31962 28.5742C8.82682 29.3768 8.89593 30.4289 9.10073 31.3633C9.43225 32.8827 10.0761 34.324 10.9721 35.5579C11.662 36.5076 13.1852 37.2692 13.7484 36.2286C12.1203 36.3873 10.6444 37.6916 10.1964 39.3684C9.74841 41.044 10.359 42.9832 11.6646 44.0315C12.2444 44.4974 12.9932 44.7982 13.6985 44.6164C14.4038 44.4347 14.9874 43.6488 14.8095 42.8987C14.1017 42.5825 13.2582 43.1841 13.0226 43.9624C12.7871 44.7406 13.0111 45.5944 13.3401 46.3329C13.9327 47.6654 14.8748 48.8174 16.0306 49.6264C16.293 49.8094 16.5926 49.9822 16.9023 49.9348C17.3747 49.8632 17.646 49.332 17.8047 48.8532C18.437 46.9512 18.3654 45.0964 17.934 43.1739Z" fill="#444DF2"/>
<path d="M18.8583 30.3496C18.0403 29.3832 16.8973 28.7394 15.337 28.7035C13.0445 28.6511 10.8493 30.2306 10.0199 32.3695C8.68483 35.8139 10.9172 40.0175 13.9264 41.7941C16.5991 43.3711 19.7364 42.452 20.5159 39.3327C20.8615 37.949 20.7258 36.4975 20.5863 35.0779C20.4199 33.3679 19.9079 31.5912 18.8583 30.3496Z" fill="#F4C19F"/>
<path d="M13.8341 38.9154C13.4731 38.9154 13.1659 38.6389 13.1339 38.2729C13.0302 37.0799 13.4975 36.3631 13.9071 35.9714C14.6533 35.2585 15.7426 35.0729 16.5323 35.0434C16.4133 34.7733 16.2392 34.5481 16.0075 34.3637C14.9554 33.5266 13.0635 33.7852 13.0443 33.7877C12.6603 33.8479 12.3007 33.5817 12.2431 33.1977C12.1842 32.8137 12.4491 32.454 12.8331 32.3964C12.9343 32.381 15.3381 32.0341 16.8831 33.2617C17.6229 33.8505 18.0402 34.6799 18.1208 35.7257C18.1374 35.9369 18.0568 36.1455 17.9032 36.2914C17.7483 36.4373 17.5371 36.5052 17.3259 36.4783C16.8574 36.4181 15.5019 36.3925 14.8773 36.9916C14.6034 37.2553 14.492 37.6341 14.5368 38.1513C14.5701 38.5391 14.2834 38.8796 13.8968 38.9141C13.875 38.9141 13.8546 38.9154 13.8341 38.9154Z" fill="#EAAA7F"/>
<path d="M41.6881 61.821C41.4897 61.821 38.1848 61.8031 33.9492 60.7061C29.9812 59.6783 24.4337 57.4639 20.5451 52.756C20.298 52.4565 20.3403 52.0123 20.6398 51.7653C20.9393 51.5183 21.3835 51.5605 21.6305 51.86C25.2708 56.2671 30.5112 58.356 34.2654 59.3339C38.3704 60.4027 41.6497 60.413 41.6907 60.413C42.0798 60.413 42.3947 60.7279 42.3947 61.1157C42.3947 61.5048 42.0811 61.8197 41.692 61.821C41.692 61.821 41.6907 61.821 41.6881 61.821Z" fill="#1B1464"/>
</g>
<defs>
<clipPath id="clip0_80319_16429">
<rect x="4" y="4.5" width="64" height="64" rx="32" fill="white"/>
</clipPath>
</defs>
</svg>
