<svg width="72" height="73" viewBox="0 0 72 73" fill="none" xmlns="http://www.w3.org/2000/svg">
<g clip-path="url(#clip0_80319_16471)">
<path d="M68 4.5H4V68.5H68V4.5Z" fill="#797EF3"/>
<path d="M43.6684 68.5H20.165C20.7346 66.4123 21.1967 64.5627 21.2825 64.1749C22.0313 60.7432 22.5049 57.2616 22.6943 53.7685C22.7929 51.9573 22.8159 50.1423 22.7622 48.3298C22.725 47.0741 22.1529 45.0671 22.7225 43.8703C23.813 41.5752 28.8831 44.2696 31.1346 44.5627C35.0015 45.0671 38.9337 44.8303 42.8134 44.5947C42.2233 52.5627 42.5126 60.5832 43.6684 68.5Z" fill="#797EF3"/>
<path d="M60.0191 40.3259C60.3814 41.9656 61.0777 43.5554 61.0905 45.236C60.7423 45.3205 60.4185 45.0427 60.1791 44.7765C57.6486 41.9566 56.8447 38.0206 56.3135 34.269C55.9859 31.9522 55.1449 28.1045 56.2431 25.9106C56.8025 24.7931 58.8275 23.4939 59.9846 24.5691C61.3529 25.8427 60.2495 30.333 60.0678 31.9675C59.7593 34.74 59.4086 37.5662 60.0191 40.3259Z" fill="#444DF2"/>
<path d="M40.0603 8.78029C38.9813 8.16717 37.8613 7.62573 36.7003 7.17005C31.7429 5.22701 25.9201 5.02989 21.2251 7.54509C17.0945 9.75821 14.2017 13.8529 12.644 18.2728C11.0862 22.6926 10.7432 27.4452 10.7189 32.13C10.6881 37.826 11.1093 43.5182 11.8107 49.1694C12.2587 52.7841 13.3774 62.0769 18.2145 62.2689C24.1525 62.5032 30.1121 62.2088 35.9989 61.3947C41.0126 60.7022 49.2737 64.5192 53.2801 61.076C55.6725 59.019 54.7995 51.627 55.8261 48.6433C57.0741 45.0184 58.0046 41.2488 58.116 37.4164C58.2632 32.3643 56.9486 27.2763 54.372 22.9281C53.0011 20.6152 51.2897 18.5185 49.4645 16.5448C46.6958 13.5521 43.5893 10.7848 40.0603 8.78029Z" fill="#444DF2"/>
<path d="M43.6684 68.5H20.165C20.7346 66.4123 21.1967 64.5627 21.2825 64.1749C22.0313 60.7432 22.5049 57.2616 22.6943 53.7685C22.7929 51.9573 22.8159 50.1423 22.7622 48.3298C22.725 47.0741 22.1529 45.0671 22.7225 43.8703C23.813 41.5752 28.8831 44.2696 31.1346 44.5627C35.0015 45.0671 38.9337 44.8303 42.8134 44.5947C42.2233 52.5627 42.5126 60.5832 43.6684 68.5Z" fill="#E8AE8E"/>
<path d="M23.0372 52.3964C26.9489 56.5974 32.3351 59.261 38.1169 60.7535C43.6209 62.1743 50.1015 62.342 54.3153 58.5263C57.8558 55.3212 58.8209 50.191 59.1844 45.4281C59.6196 39.7218 59.4814 33.9874 59.2318 28.271C59.123 25.7852 58.9911 23.2828 58.3947 20.8687C57.4923 17.2182 55.2382 12.367 51.6695 10.7465C47.3585 8.78935 42.1937 8.27351 37.5294 8.80087C34.154 9.18231 30.7198 9.58679 27.6171 10.9654C24.8292 12.2044 21.2158 13.7852 19.7271 16.5513C17.8391 20.0585 16.7652 24.1135 16.3083 28.0534C15.6145 34.0284 16.4247 40.1954 18.7479 45.7506C19.8116 48.3017 21.2747 50.5046 23.0372 52.3964Z" fill="#F4C19F"/>
<path d="M19.7543 29.0696C18.9363 28.1032 17.7933 27.4594 16.233 27.4235C13.9405 27.371 11.7453 28.9506 10.9159 31.0894C9.58083 34.5339 11.8131 38.7374 14.8224 40.5141C17.4951 42.091 20.6323 41.172 21.4119 38.0526C21.7575 36.669 21.6218 35.2174 21.4823 33.7979C21.3159 32.0878 20.8039 30.3112 19.7543 29.0696Z" fill="#F4C19F"/>
<path d="M14.7301 37.6354C14.3691 37.6354 14.0619 37.3589 14.0299 36.9928C13.9262 35.7999 14.3934 35.0831 14.803 34.6914C15.5493 33.9784 16.6386 33.7928 17.4283 33.7634C17.3093 33.4933 17.1352 33.268 16.9035 33.0837C15.8514 32.2466 13.9595 32.5052 13.9403 32.5077C13.5563 32.5666 13.1966 32.3016 13.139 31.9176C13.0802 31.5336 13.3451 31.174 13.7291 31.1164C13.8302 31.101 16.2341 30.7541 17.779 31.9816C18.5189 32.5704 18.9362 33.3999 19.0168 34.4456C19.0334 34.6568 18.9528 34.8655 18.7992 35.0114C18.6443 35.1573 18.4331 35.2252 18.2219 35.1983C17.7534 35.1381 16.3979 35.1125 15.7733 35.7116C15.4994 35.9752 15.388 36.3541 15.4328 36.8712C15.4661 37.2591 15.1794 37.5996 14.7928 37.6341C14.771 37.6341 14.7506 37.6354 14.7301 37.6354Z" fill="#EAAA7F"/>
<path d="M31.3203 25.8325C31.3164 25.8376 31.3139 25.8427 31.31 25.8478C30.8876 26.4661 29.3939 26.4046 28.7487 26.4866C28.2124 26.5544 20.6067 27.2277 20.5708 26.8706C20.8614 29.8338 21.1519 32.7982 21.4425 35.7614C21.8111 39.5272 22.1247 43.572 20.2457 46.8565C20.9331 41.8478 20.0319 36.6331 17.7036 32.1454C16.9625 30.7157 16.0678 29.3256 15.7529 27.7461C15.4828 26.3867 15.6633 24.9787 15.95 23.6232C16.6668 20.2466 18.0505 17.0133 19.9987 14.164C23.5763 8.93392 30.0684 6.26384 36.2316 5.82608C38.9708 5.63152 41.7254 5.65968 44.4595 5.91056C48.3763 6.27024 52.8371 7.54512 55.4227 10.7054C56.9446 12.5666 57.9187 14.804 58.8736 17.0107C59.0911 17.5138 62.1196 26.7797 61.3529 26.612C59.7939 26.2728 58.2361 25.9336 56.6771 25.5944C55.0041 25.2309 53.3299 24.8661 51.6326 24.6421C48.1651 24.1851 44.6591 24.3259 41.1852 24.6306C40.2751 24.7099 34.6009 26.0066 34.1478 24.6997C33.3977 22.5365 32.6463 20.3733 31.8963 18.2101C31.7734 17.8568 31.2575 17.4805 31.1385 17.835C31.1411 19.3211 32.0447 24.7125 31.3203 25.8325Z" fill="#444DF2"/>
<path d="M44.4901 44.6344C44.1023 44.6344 43.7874 44.3208 43.7861 43.933C43.7849 43.5438 44.0985 43.2277 44.4863 43.2264C44.5324 43.2264 49.0303 43.1701 49.2863 40.6766C49.3874 39.6859 49.0905 39.3416 48.5516 38.7182C47.6658 37.6942 46.4537 36.2914 46.5343 31.7499C46.5407 31.3659 46.8543 31.0587 47.2383 31.0587C47.2421 31.0587 47.2473 31.0587 47.2511 31.0587C47.6402 31.0651 47.95 31.3864 47.9423 31.7755C47.8706 35.7794 48.8383 36.8981 49.6165 37.7979C50.2233 38.4994 50.8505 39.2264 50.6866 40.8213C50.3013 44.5691 44.7295 44.6344 44.4927 44.6357C44.4927 44.6344 44.4914 44.6344 44.4901 44.6344Z" fill="#1B1464"/>
<path d="M38.8367 37.8345C39.8631 37.7671 40.6033 36.3131 40.49 34.5869C40.3767 32.8607 39.4528 31.516 38.4264 31.5833C37.4 31.6507 36.6597 33.1047 36.773 34.8309C36.8863 36.5571 37.8103 37.9019 38.8367 37.8345Z" fill="#1B1464"/>
<path d="M53.0584 37.4351C54.0848 37.3677 54.825 35.9137 54.7117 34.1875C54.5984 32.4613 53.6745 31.1165 52.648 31.1839C51.6216 31.2513 50.8814 32.7053 50.9947 34.4315C51.108 36.1577 52.0319 37.5025 53.0584 37.4351Z" fill="#1B1464"/>
<path d="M56.5622 30.8693C56.4176 30.8693 56.2729 30.8258 56.1475 30.7336C53.0742 28.4872 50.3107 29.1861 50.1942 29.2168C49.8192 29.3166 49.4339 29.0952 49.3328 28.7202C49.2317 28.3464 49.4505 27.9611 49.823 27.8574C49.9651 27.819 53.3328 26.932 56.9782 29.5957C57.2918 29.8248 57.3609 30.2651 57.1318 30.58C56.9936 30.7694 56.7798 30.8693 56.5622 30.8693Z" fill="#1B1464"/>
<path d="M31.5739 31.6335C31.4638 31.6335 31.3511 31.6079 31.2462 31.5516C30.9019 31.3698 30.77 30.9448 30.9518 30.6005C31.0222 30.4674 32.7463 27.3583 40.0513 27.3583C40.1153 27.3583 40.1793 27.3583 40.2446 27.3596C40.6337 27.3621 40.946 27.6796 40.9435 28.0687C40.9409 28.4552 40.626 28.7676 40.2395 28.7676C40.2382 28.7676 40.2356 28.7676 40.2343 28.7676C33.7217 28.7202 32.21 31.2316 32.1972 31.2572C32.0718 31.4965 31.8273 31.6335 31.5739 31.6335Z" fill="#1B1464"/>
<path d="M43.3192 50.607C37.7474 50.607 34.0405 46.095 33.8741 45.8902C33.6296 45.5881 33.677 45.1439 33.9804 44.9007C34.2824 44.6563 34.7253 44.7036 34.9698 45.007C35.0274 45.0774 38.9378 49.7993 44.406 49.1337C44.7925 49.0876 45.1432 49.3615 45.1893 49.7481C45.2367 50.1334 44.9615 50.4854 44.5749 50.5314C44.1474 50.5826 43.7276 50.607 43.3192 50.607Z" fill="#1B1464"/>
<path d="M42.5035 62.228C34.2974 62.228 25.9186 55.9522 25.5666 55.6846C25.2568 55.4504 25.1954 55.0088 25.4309 54.699C25.6651 54.3893 26.1067 54.3278 26.4178 54.5621C26.501 54.6248 34.7762 60.8187 42.5048 60.8187C42.8939 60.8187 43.2088 61.1336 43.2088 61.5227C43.2088 61.9118 42.8926 62.228 42.5035 62.228Z" fill="#1B1464"/>
</g>
<defs>
<clipPath id="clip0_80319_16471">
<rect x="4" y="4.5" width="64" height="64" rx="32" fill="white"/>
</clipPath>
</defs>
</svg>
